<svg xmlns="http://www.w3.org/2000/svg" width="122" height="40" viewBox="0 0 122 40" fill="none">
  <path d="M1.44181 5.40068C1.50066 4.98037 1.5257 4.80487 1.55941 4.65298C1.90219 3.10845 3.10845 1.90219 4.65298 1.55941C4.80487 1.5257 4.98037 1.50066 5.40068 1.44181C6.57216 1.27781 7.15092 1.1968 7.72804 1.12602C8.38501 1.04545 10.4364 0.970715 13.5901 0.906335C16.7239 0.842362 20.9046 0.789016 25.7845 0.746328C35.5438 0.660956 48.0933 0.618262 60.6436 0.618262C73.1938 0.618262 85.7433 0.660956 95.5026 0.746328C100.383 0.789016 104.563 0.842362 107.697 0.906335C110.851 0.970715 112.902 1.04545 113.559 1.12602C114.136 1.1968 114.715 1.27781 115.886 1.44181C116.307 1.50066 116.482 1.5257 116.634 1.55941C118.179 1.90219 119.385 3.10845 119.728 4.65298C119.761 4.80487 119.786 4.98037 119.845 5.40069C120.009 6.57217 120.09 7.15092 120.161 7.72803C120.838 13.2484 120.838 26.7516 120.161 32.272C120.09 32.8491 120.009 33.4278 119.845 34.5993C119.786 35.0196 119.761 35.1951 119.728 35.347C119.385 36.8916 118.179 38.0978 116.634 38.4406C116.482 38.4743 116.307 38.4993 115.886 38.5582C114.715 38.7222 114.136 38.8032 113.559 38.874C112.902 38.9545 110.851 39.0293 107.697 39.0937C104.563 39.1576 100.383 39.211 95.5026 39.2537C85.7433 39.339 73.1938 39.3817 60.6436 39.3817C48.0933 39.3817 35.5438 39.339 25.7845 39.2537C20.9046 39.211 16.7239 39.1576 13.5901 39.0937C10.4364 39.0293 8.38501 38.9545 7.72804 38.874C7.15092 38.8032 6.57216 38.7222 5.40068 38.5582C4.98037 38.4993 4.80487 38.4743 4.65298 38.4406C3.10845 38.0978 1.90219 36.8916 1.55941 35.347C1.5257 35.1951 1.50066 35.0196 1.44181 34.5993C1.27781 33.4278 1.1968 32.8491 1.12602 32.272C0.449008 26.7516 0.449008 13.2484 1.12602 7.72804C1.1968 7.15092 1.27781 6.57216 1.44181 5.40068Z" stroke="white" stroke-width="1.23652"/>
</svg>