<svg xmlns="http://www.w3.org/2000/svg" width="161" height="57" viewBox="0 0 161 57" fill="none">
  <path d="M1.81986 5.45361C1.87964 5.02663 1.90245 4.8692 1.93208 4.73569C2.24273 3.33593 3.33593 2.24273 4.73569 1.93208C4.8692 1.90245 5.02664 1.87964 5.45361 1.81986C6.6263 1.65569 7.20135 1.57521 7.77451 1.50492C8.40242 1.42792 11.0279 1.35269 15.2685 1.28809C19.4678 1.22411 25.1713 1.17076 31.8792 1.12807C45.2943 1.04269 62.7184 1 80.1436 1C97.5687 1 114.993 1.04269 128.408 1.12807C135.116 1.17076 140.819 1.22411 145.019 1.28809C149.259 1.35269 151.885 1.42792 152.513 1.50492C153.086 1.57521 153.661 1.65569 154.834 1.81986C155.26 1.87964 155.418 1.90245 155.551 1.93209C156.951 2.24274 158.044 3.33593 158.355 4.73569C158.385 4.86919 158.407 5.02666 158.467 5.4536C158.631 6.62632 158.712 7.20135 158.782 7.7745C159.115 10.4845 159.287 19.4428 159.287 28.5C159.287 37.5572 159.115 46.5155 158.782 49.2255C158.712 49.7986 158.631 50.3737 158.467 51.5464C158.407 51.9733 158.385 52.1308 158.355 52.2643C158.044 53.6641 156.951 54.7573 155.551 55.0679C155.418 55.0975 155.26 55.1204 154.834 55.1801C153.661 55.3443 153.086 55.4248 152.513 55.4951C151.885 55.5721 149.259 55.6473 145.019 55.7119C140.819 55.7759 135.116 55.8292 128.408 55.8719C114.993 55.9573 97.5687 56 80.1436 56C62.7184 56 45.2943 55.9573 31.8792 55.8719C25.1713 55.8292 19.4678 55.7759 15.2685 55.7119C11.0279 55.6473 8.40242 55.5721 7.77451 55.4951C7.20135 55.4248 6.6263 55.3443 5.45361 55.1801C5.02663 55.1204 4.8692 55.0975 4.73569 55.0679C3.33593 54.7573 2.24273 53.6641 1.93208 52.2643C1.90245 52.1308 1.87964 51.9734 1.81986 51.5464C1.65569 50.3737 1.57521 49.7986 1.50492 49.2255C1.17257 46.5155 1 37.5572 1 28.5C1 19.4428 1.17257 10.4845 1.50492 7.77451C1.57521 7.20135 1.65569 6.6263 1.81986 5.45361Z" stroke="white" stroke-width="2"/>
  <path d="M1.81986 5.45361C1.87964 5.02663 1.90245 4.8692 1.93208 4.73569C2.24273 3.33593 3.33593 2.24273 4.73569 1.93208C4.8692 1.90245 5.02664 1.87964 5.45361 1.81986C6.6263 1.65569 7.20135 1.57521 7.77451 1.50492C8.40242 1.42792 11.0279 1.35269 15.2685 1.28809C19.4678 1.22411 25.1713 1.17076 31.8792 1.12807C45.2943 1.04269 62.7184 1 80.1436 1C97.5687 1 114.993 1.04269 128.408 1.12807C135.116 1.17076 140.819 1.22411 145.019 1.28809C149.259 1.35269 151.885 1.42792 152.513 1.50492C153.086 1.57521 153.661 1.65569 154.834 1.81986C155.26 1.87964 155.418 1.90245 155.551 1.93209C156.951 2.24274 158.044 3.33593 158.355 4.73569C158.385 4.86919 158.407 5.02666 158.467 5.4536C158.631 6.62632 158.712 7.20135 158.782 7.7745C159.115 10.4845 159.287 19.4428 159.287 28.5C159.287 37.5572 159.115 46.5155 158.782 49.2255C158.712 49.7986 158.631 50.3737 158.467 51.5464C158.407 51.9733 158.385 52.1308 158.355 52.2643C158.044 53.6641 156.951 54.7573 155.551 55.0679C155.418 55.0975 155.26 55.1204 154.834 55.1801C153.661 55.3443 153.086 55.4248 152.513 55.4951C151.885 55.5721 149.259 55.6473 145.019 55.7119C140.819 55.7759 135.116 55.8292 128.408 55.8719C114.993 55.9573 97.5687 56 80.1436 56C62.7184 56 45.2943 55.9573 31.8792 55.8719C25.1713 55.8292 19.4678 55.7759 15.2685 55.7119C11.0279 55.6473 8.40242 55.5721 7.77451 55.4951C7.20135 55.4248 6.6263 55.3443 5.45361 55.1801C5.02663 55.1204 4.8692 55.0975 4.73569 55.0679C3.33593 54.7573 2.24273 53.6641 1.93208 52.2643C1.90245 52.1308 1.87964 51.9734 1.81986 51.5464C1.65569 50.3737 1.57521 49.7986 1.50492 49.2255C1.17257 46.5155 1 37.5572 1 28.5C1 19.4428 1.17257 10.4845 1.50492 7.77451C1.57521 7.20135 1.65569 6.6263 1.81986 5.45361Z" stroke="url(#paint0_linear_1_2353)" stroke-width="2"/>
  <defs>
    <linearGradient id="paint0_linear_1_2353" x1="0" y1="28.5" x2="160.287" y2="28.5" gradientUnits="userSpaceOnUse">
      <stop stop-color="#FCAF54"/>
      <stop offset="1" stop-color="#FAFDB4"/>
    </linearGradient>
  </defs>
</svg>