<svg xmlns="http://www.w3.org/2000/svg" width="8" height="8" viewBox="0 0 8 8" fill="none">
  <path d="M0.535755 0.535534C0.926279 0.14501 1.55944 0.14501 1.94997 0.535534L7.60682 6.19239C7.99735 6.58291 7.99735 7.21608 7.60682 7.6066C7.2163 7.99713 6.58313 7.99713 6.19261 7.6066L0.535755 1.94975C0.145231 1.55922 0.145231 0.926058 0.535755 0.535534Z" fill="#FCAF54"/>
  <path d="M7.60682 0.535534C7.99735 0.926058 7.99735 1.55922 7.60682 1.94975L1.94997 7.6066C1.55944 7.99713 0.926279 7.99713 0.535755 7.6066C0.145231 7.21608 0.145231 6.58291 0.535755 6.19239L6.19261 0.535534C6.58313 0.14501 7.2163 0.14501 7.60682 0.535534Z" fill="#FCAF54"/>
</svg>