<svg xmlns="http://www.w3.org/2000/svg" width="56" height="55" viewBox="0 0 56 55" fill="none"><path d="M1 39C0.734784 39 0.48043 38.8946 0.292893 38.7071C0.105357 38.5196 0 38.2652 0 38C0 36.6739 0.526784 35.4021 1.46447 34.4645C2.40215 33.5268 3.67392 33 5 33C5.26522 33 5.51957 33.1054 5.70711 33.2929C5.89464 33.4804 6 33.7348 6 34C6 34.2652 5.89464 34.5196 5.70711 34.7071C5.51957 34.8946 5.26522 35 5 35C4.20435 35 3.44129 35.3161 2.87868 35.8787C2.31607 36.4413 2 37.2044 2 38C2 38.2652 1.89464 38.5196 1.70711 38.7071C1.51957 38.8946 1.26522 39 1 39Z" fill="#CBFB45"></path><path d="M34.26 22.2401C34.3943 22.1674 34.5245 22.0873 34.65 22.0001C34.7057 21.9633 34.7591 21.9233 34.81 21.8801L34.63 22.0001C34.51 22.0901 34.39 22.1601 34.26 22.2401ZM53 30.0001H52.5C51.7428 27.0947 50.1833 24.461 48 22.4001V13.0001C48 12.7349 47.8946 12.4805 47.7071 12.293C47.5196 12.1055 47.2652 12.0001 47 12.0001C45.2602 11.9911 43.5794 12.6304 42.2853 13.7932C40.9911 14.9561 40.1764 16.5592 40 18.2901C39.4444 18.184 38.8836 18.1073 38.32 18.0601C37.91 18.0001 37.45 18.0001 37 18.0001H36.49C36.3431 17.9999 36.1979 18.032 36.0648 18.0942C35.9317 18.1564 35.814 18.2472 35.72 18.3601C34.7818 19.4978 33.6036 20.4139 32.2698 21.0428C30.936 21.6717 29.4796 21.9978 28.005 21.9978C26.5304 21.9978 25.074 21.6717 23.7402 21.0428C22.4064 20.4139 21.2282 19.4978 20.29 18.3601C20.1928 18.2432 20.0702 18.1501 19.9316 18.0877C19.7929 18.0253 19.6419 17.9953 19.49 18.0001C18.894 18.0178 18.2996 18.0712 17.71 18.1601C14.0431 18.6611 10.6663 20.4271 8.16306 23.1531C5.65981 25.8791 4.18733 29.3939 3.99999 33.0901C3.99999 33.3901 3.99999 33.6901 3.99999 34.0001C3.97982 34.3865 3.97982 34.7737 3.99999 35.1601C4.2971 39.1472 6.08173 42.8771 8.99999 45.6101V52.0001C8.99999 52.7957 9.31606 53.5588 9.87866 54.1214C10.4413 54.684 11.2043 55.0001 12 55.0001H20C20.7956 55.0001 21.5587 54.684 22.1213 54.1214C22.6839 53.5588 23 52.7957 23 52.0001V50.0001H28V52.0001C28 52.7957 28.3161 53.5588 28.8787 54.1214C29.4413 54.684 30.2043 55.0001 31 55.0001H39C39.7956 55.0001 40.5587 54.684 41.1213 54.1214C41.6839 53.5588 42 52.7957 42 52.0001V49.1901C44.9373 48.2146 47.531 46.4126 49.47 44.0001H53C53.7956 44.0001 54.5587 43.684 55.1213 43.1214C55.6839 42.5588 56 41.7957 56 41.0001V33.0001C56 32.2044 55.6839 31.4414 55.1213 30.8788C54.5587 30.3162 53.7956 30.0001 53 30.0001ZM54 41.0001C54 41.2653 53.8946 41.5197 53.7071 41.7072C53.5196 41.8947 53.2652 42.0001 53 42.0001H49C48.8447 42.0001 48.6916 42.0362 48.5528 42.1057C48.4139 42.1751 48.2931 42.2759 48.2 42.4001C46.3433 44.8691 43.7251 46.658 40.75 47.4901C40.5337 47.5506 40.344 47.6821 40.2116 47.8635C40.0792 48.0449 40.0117 48.2656 40.02 48.4901V52.0001C40.02 52.2653 39.9146 52.5197 39.7271 52.7072C39.5396 52.8947 39.2852 53.0001 39.02 53.0001H31C30.7348 53.0001 30.4804 52.8947 30.2929 52.7072C30.1053 52.5197 30 52.2653 30 52.0001V49.0001C30 48.7349 29.8946 48.4805 29.7071 48.293C29.5196 48.1054 29.2652 48.0001 29 48.0001H22C21.7348 48.0001 21.4804 48.1054 21.2929 48.293C21.1053 48.4805 21 48.7349 21 49.0001V52.0001C21 52.2653 20.8946 52.5197 20.7071 52.7072C20.5196 52.8947 20.2652 53.0001 20 53.0001H12C11.7348 53.0001 11.4804 52.8947 11.2929 52.7072C11.1053 52.5197 11 52.2653 11 52.0001V45.1701C11.0011 45.0289 10.9722 44.889 10.9153 44.7597C10.8585 44.6305 10.7748 44.5147 10.67 44.4201C8.61007 42.5834 7.13897 40.1788 6.44154 37.5085C5.74412 34.8383 5.85148 32.0214 6.75015 29.412C7.64881 26.8025 9.29868 24.5169 11.4924 22.8423C13.6862 21.1678 16.3259 20.1789 19.08 20.0001C19.7522 20.7644 20.5221 21.4369 21.37 22.0001L21.78 22.2701L22.18 22.5001C23.1764 23.0539 24.2474 23.4614 25.36 23.7101C25.57 23.7601 25.79 23.8001 26.01 23.8301L26.33 23.8801L26.73 23.9301C27.1516 23.9786 27.5756 24.002 28 24.0001C28.4277 24.0017 28.855 23.9783 29.28 23.9301H29.62C29.75 23.9301 29.87 23.9301 29.99 23.8701C30.11 23.8101 30.43 23.8001 30.64 23.7501L31.37 23.5601L31.9 23.3901L32.51 23.1601C32.71 23.0801 32.91 23.0001 33.11 22.9001C33.31 22.8001 33.5 22.7101 33.69 22.6101L34.26 22.2801C34.3943 22.2074 34.5245 22.1273 34.65 22.0401C34.7057 22.0033 34.7591 21.9633 34.81 21.9201L35.39 21.4901L35.86 21.1101C36.03 20.9701 36.19 20.8201 36.35 20.6601L36.8 20.2001L37 20.0001C38.26 20.0007 39.5143 20.1688 40.73 20.5001C40.879 20.5436 41.0361 20.5517 41.1889 20.524C41.3416 20.4962 41.4858 20.4332 41.61 20.3401C41.7323 20.2459 41.8312 20.1247 41.8989 19.9859C41.9666 19.8471 42.0012 19.6945 42 19.5401V19.0001C41.9997 17.8474 42.3978 16.7301 43.1267 15.8372C43.8556 14.9443 44.8706 14.3306 46 14.1001V22.8401C46.0003 22.9796 46.0298 23.1176 46.0867 23.245C46.1435 23.3725 46.2264 23.4866 46.33 23.5801C48.5817 25.5762 50.1226 28.2509 50.72 31.2001C50.7667 31.4294 50.8924 31.635 51.0751 31.7812C51.2578 31.9273 51.486 32.0048 51.72 32.0001H53C53.2652 32.0001 53.5196 32.1054 53.7071 32.293C53.8946 32.4805 54 32.7349 54 33.0001V41.0001Z" fill="#CBFB45"></path><path opacity="0.5" d="M54 33.0006V41.0006C54 41.2658 53.8947 41.5202 53.7071 41.7077C53.5196 41.8952 53.2652 42.0006 53 42.0006H49C48.8448 42.0006 48.6917 42.0367 48.5528 42.1062C48.414 42.1756 48.2932 42.2764 48.2 42.4006C46.3433 44.8696 43.7251 46.6585 40.75 47.4906C40.5337 47.5511 40.3441 47.6826 40.2117 47.864C40.0792 48.0454 40.0117 48.2661 40.02 48.4906V52.0006C40.02 52.2658 39.9147 52.5202 39.7271 52.7077C39.5396 52.8952 39.2852 53.0006 39.02 53.0006H31C30.7348 53.0006 30.4804 52.8952 30.2929 52.7077C30.1054 52.5202 30 52.2658 30 52.0006V49.0006C30 48.7354 29.8947 48.481 29.7071 48.2935C29.5196 48.1059 29.2652 48.0006 29 48.0006H22C21.7348 48.0006 21.4804 48.1059 21.2929 48.2935C21.1054 48.481 21 48.7354 21 49.0006V52.0006C21 52.2658 20.8947 52.5202 20.7071 52.7077C20.5196 52.8952 20.2652 53.0006 20 53.0006H12C11.7348 53.0006 11.4804 52.8952 11.2929 52.7077C11.1054 52.5202 11 52.2658 11 52.0006V45.1706C11.0011 45.0294 10.9722 44.8895 10.9154 44.7602C10.8585 44.631 10.7749 44.5152 10.67 44.4206C8.6101 42.5839 7.139 40.1793 6.44157 37.509C5.74415 34.8388 5.85151 32.0219 6.75018 29.4125C7.64884 26.803 9.29871 24.5174 11.4925 22.8428C13.6862 21.1683 16.326 20.1794 19.08 20.0006C19.7522 20.7649 20.5222 21.4374 21.37 22.0006H19C18.7348 22.0006 18.4804 22.1059 18.2929 22.2935C18.1054 22.481 18 22.7354 18 23.0006C18 23.2658 18.1054 23.5202 18.2929 23.7077C18.4804 23.8952 18.7348 24.0006 19 24.0006H37C37.2652 24.0006 37.5196 23.8952 37.7071 23.7077C37.8947 23.5202 38 23.2658 38 23.0006C38 22.7354 37.8947 22.481 37.7071 22.2935C37.5196 22.1059 37.2652 22.0006 37 22.0006H34.65C34.7057 21.9638 34.7591 21.9237 34.81 21.8806L35.39 21.4506C35.5558 21.3356 35.7129 21.2086 35.86 21.0706C36.03 20.9306 36.19 20.7806 36.35 20.6206C36.51 20.4606 36.66 20.3206 36.8 20.1606L37 20.0006C38.26 20.0011 39.5144 20.1693 40.73 20.5006C40.8791 20.5441 41.0362 20.5522 41.1889 20.5245C41.3416 20.4967 41.4858 20.4337 41.61 20.3406C41.7324 20.2464 41.8313 20.1252 41.8989 19.9864C41.9666 19.8476 42.0012 19.695 42 19.5406V19.0006C41.9998 17.8479 42.3978 16.7306 43.1267 15.8377C43.8556 14.9448 44.8707 14.3311 46 14.1006V22.8406C46.0003 22.9801 46.0299 23.1181 46.0867 23.2455C46.1436 23.373 46.2264 23.4871 46.33 23.5806C48.5817 25.5767 50.1227 28.2514 50.72 31.2006C50.7668 31.4299 50.8924 31.6355 51.0752 31.7817C51.2579 31.9278 51.4861 32.0053 51.72 32.0006H53C53.2652 32.0006 53.5196 32.1059 53.7071 32.2935C53.8947 32.481 54 32.7354 54 33.0006Z" fill="#CBFB45"></path><path d="M28 0.000132779C25.877 0.000536743 23.7921 0.56414 21.9581 1.63343C20.1241 2.70273 18.6066 4.23943 17.5604 6.08674C16.5143 7.93404 15.9769 10.0258 16.0032 12.1486C16.0294 14.2714 16.6184 16.3493 17.71 18.1701C18.0014 18.6905 18.3359 19.1856 18.71 19.6501L19.04 20.0301C19.7122 20.7945 20.4821 21.4669 21.33 22.0301L21.74 22.3001L22.14 22.5301C23.1364 23.084 24.2074 23.4915 25.32 23.7401C25.53 23.7901 25.75 23.8301 25.97 23.8601L26.29 23.9101L26.69 23.9601C27.1254 24.0002 27.5629 24.0136 28 24.0001C28.4276 24.0017 28.855 23.9783 29.28 23.9301H29.62C29.75 23.9301 29.87 23.9301 29.99 23.8701C30.11 23.8101 30.43 23.8001 30.64 23.7501L31.37 23.5601L31.9 23.3901L32.51 23.1601L33.11 22.9001C33.31 22.8101 33.5 22.7101 33.69 22.6101L34.26 22.2801C34.39 22.2001 34.51 22.1301 34.63 22.0401L34.81 21.9201L35.39 21.4901L35.86 21.1101C36.03 20.9701 36.19 20.8201 36.35 20.6601L36.8 20.2001L37 20.0001L37.31 19.6401C38.7622 17.8812 39.6831 15.7449 39.9646 13.4814C40.2462 11.2179 39.8768 8.92098 38.8998 6.85988C37.9228 4.79878 36.3786 3.05882 34.4481 1.8439C32.5176 0.628974 30.2809 -0.0105953 28 0.000132779ZM28 22.0001C25.7278 21.9994 23.5236 21.2249 21.7503 19.8042C19.9771 18.3834 18.7406 16.4012 18.2444 14.1838C17.7482 11.9664 18.022 9.64621 19.0206 7.60522C20.0192 5.56422 21.6831 3.92417 23.7383 2.95514C25.7935 1.9861 28.1175 1.74588 30.3274 2.27402C32.5374 2.80216 34.5016 4.06717 35.8966 5.86074C37.2916 7.6543 38.0342 9.86947 38.0021 12.1414C37.97 14.4134 37.1651 16.6067 35.72 18.3601C34.7815 19.4989 33.6026 20.4158 32.2678 21.0451C30.9331 21.6745 29.4756 22.0006 28 22.0001Z" fill="#CBFB45"></path><path opacity="0.5" d="M31.6 11.47C31.8602 11.0237 31.9981 10.5166 32 10C31.9983 9.38106 31.8051 8.7778 31.4471 8.27293C31.089 7.76807 30.5835 7.38631 30 7.18V6C30 5.73478 29.8946 5.48043 29.7071 5.29289C29.5196 5.10536 29.2652 5 29 5C28.7348 5 28.4804 5.10536 28.2929 5.29289C28.1054 5.48043 28 5.73478 28 6V7H27V6C27 5.73478 26.8946 5.48043 26.7071 5.29289C26.5196 5.10536 26.2652 5 26 5C25.7348 5 25.4804 5.10536 25.2929 5.29289C25.1054 5.48043 25 5.73478 25 6V7H24C23.7348 7 23.4804 7.10536 23.2929 7.29289C23.1054 7.48043 23 7.73478 23 8C23 8.26522 23.1054 8.51957 23.2929 8.70711C23.4804 8.89464 23.7348 9 24 9V15C23.7348 15 23.4804 15.1054 23.2929 15.2929C23.1054 15.4804 23 15.7348 23 16C23 16.2652 23.1054 16.5196 23.2929 16.7071C23.4804 16.8946 23.7348 17 24 17H25V18C25 18.2652 25.1054 18.5196 25.2929 18.7071C25.4804 18.8946 25.7348 19 26 19C26.2652 19 26.5196 18.8946 26.7071 18.7071C26.8946 18.5196 27 18.2652 27 18V17H28V18C28 18.2652 28.1054 18.5196 28.2929 18.7071C28.4804 18.8946 28.7348 19 29 19C29.2652 19 29.5196 18.8946 29.7071 18.7071C29.8946 18.5196 30 18.2652 30 18V17C30.6481 16.9974 31.278 16.7849 31.7953 16.3944C32.3126 16.0039 32.6895 15.4564 32.8697 14.8338C33.0498 14.2112 33.0235 13.547 32.7946 12.9406C32.5657 12.3342 32.1466 11.8183 31.6 11.47ZM29 9C29.2652 9 29.5196 9.10536 29.7071 9.29289C29.8946 9.48043 30 9.73478 30 10C30 10.2652 29.8946 10.5196 29.7071 10.7071C29.5196 10.8946 29.2652 11 29 11H26V9H29ZM30 15H26V13H30C30.2652 13 30.5196 13.1054 30.7071 13.2929C30.8946 13.4804 31 13.7348 31 14C31 14.2652 30.8946 14.5196 30.7071 14.7071C30.5196 14.8946 30.2652 15 30 15Z" fill="#CBFB45"></path><path d="M38 23C38 23.2652 37.8946 23.5196 37.7071 23.7071C37.5196 23.8946 37.2652 24 37 24H19C18.7348 24 18.4804 23.8946 18.2929 23.7071C18.1054 23.5196 18 23.2652 18 23C18 22.7348 18.1054 22.4804 18.2929 22.2929C18.4804 22.1054 18.7348 22 19 22H37C37.2652 22 37.5196 22.1054 37.7071 22.2929C37.8946 22.4804 38 22.7348 38 23Z" fill="#CBFB45"></path></svg>