<svg xmlns="http://www.w3.org/2000/svg" width="54" height="56" viewBox="0 0 54 56" fill="none"><path d="M23.58 23.0795L23.41 22.9995L23 22.7995L22.52 22.5295L22 22.2495L21.54 21.9395C21.25 21.7195 20.96 21.4895 20.69 21.2495C19.0475 19.7898 17.8747 17.8758 17.32 15.7495C17.2633 15.5295 17.1334 15.3353 16.9516 15.199C16.7699 15.0627 16.5471 14.9923 16.32 14.9995H4.74999C3.45736 15.0336 2.23109 15.5793 1.34048 16.5167C0.449871 17.4542 -0.0322518 18.7068 -6.53032e-06 19.9995C-0.000342393 20.3354 0.0331601 20.6704 0.0999935 20.9995C0.279192 21.9448 0.719081 22.8211 1.36999 23.5295C1.56286 23.7316 1.77373 23.9157 1.99999 24.0795C2.79074 24.6799 3.75716 25.0032 4.74999 24.9995H23.2C23.4295 24.9968 23.6511 24.9153 23.8275 24.7686C24.004 24.6218 24.1247 24.4189 24.1692 24.1937C24.2138 23.9686 24.1795 23.735 24.0722 23.5321C23.965 23.3292 23.7912 23.1694 23.58 23.0795ZM4.74999 22.9995C4.38874 22.9973 4.03182 22.9207 3.70149 22.7744C3.37115 22.6282 3.07449 22.4155 2.82999 22.1495C2.43261 21.7195 2.16557 21.1854 2.05999 20.6095C2.02117 20.4085 2.00108 20.2043 1.99999 19.9995C1.97011 19.2379 2.24234 18.4953 2.7574 17.9334C3.27245 17.3715 3.98863 17.0359 4.74999 16.9995H15.63L15.81 17.5195C15.87 17.6895 15.93 17.8495 16 17.9995C16.2304 18.547 16.4977 19.0782 16.8 19.5895C16.94 19.8295 17.08 20.0595 17.24 20.2895C17.7851 21.1007 18.4227 21.8457 19.14 22.5095C19.2794 22.6475 19.4263 22.7777 19.58 22.8995L19.69 22.9995H4.74999Z" fill="#CBFB45"></path><path opacity="0.5" d="M19.69 23H5C4.20605 23.002 3.4437 22.6891 2.88 22.13C2.46864 21.7109 2.18434 21.1839 2.06 20.61C2.02117 20.409 2.00109 20.2048 2 20C1.97012 19.2384 2.24234 18.4958 2.7574 17.9339C3.27246 17.372 3.98863 17.0363 4.75 17H15.63L15.81 17.52C15.87 17.68 15.93 17.84 16 18C16.2304 18.5475 16.4977 19.0787 16.8 19.59C16.94 19.83 17.08 20.06 17.24 20.29C17.7851 21.1012 18.4227 21.8462 19.14 22.51C19.2794 22.648 19.4263 22.7782 19.58 22.9L19.69 23Z" fill="#CBFB45"></path><path d="M43 14.9995H39.62C39.3929 14.9923 39.1701 15.0627 38.9883 15.199C38.8066 15.3353 38.6767 15.5295 38.62 15.7495C38.62 15.9495 38.51 16.1495 38.45 16.3495C38.39 16.5495 38.33 16.7095 38.26 16.8795C38.187 17.0837 38.1035 17.2839 38.01 17.4795C37.9335 17.6675 37.8467 17.8511 37.75 18.0295C37.65 18.2295 37.54 18.4295 37.42 18.6195C37.3194 18.7987 37.2093 18.9723 37.09 19.1395C36.92 19.3895 36.75 19.6295 36.56 19.8595L36.49 19.9495C36.31 20.1695 36.12 20.3895 35.93 20.5895C35.73 20.7995 35.51 21.0095 35.29 21.1995C35.0471 21.4289 34.7899 21.6426 34.52 21.8395C34.203 22.0803 33.8687 22.2976 33.52 22.4895C33.3421 22.5993 33.1585 22.6994 32.97 22.7895L32.57 22.9795L32.4 23.0595C32.1873 23.1501 32.0125 23.3116 31.9055 23.5166C31.7984 23.7215 31.7657 23.9572 31.8128 24.1835C31.86 24.4099 31.9841 24.6129 32.1641 24.758C32.3441 24.9031 32.5688 24.9814 32.8 24.9795H46C46.2652 24.9795 46.5195 24.8742 46.7071 24.6866C46.8946 24.4991 47 24.2447 47 23.9795V18.9995C47 17.9387 46.5785 16.9212 45.8284 16.1711C45.0782 15.421 44.0608 14.9995 43 14.9995ZM36.31 22.9995C36.54 22.8095 36.75 22.6095 36.96 22.4095C37.17 22.2095 37.34 22.0295 37.52 21.8295C37.6939 21.6489 37.8575 21.4586 38.01 21.2595C38.3221 20.8889 38.6094 20.498 38.87 20.0895C39.0116 19.8869 39.1418 19.6766 39.26 19.4595C39.42 19.1795 39.57 18.8895 39.71 18.5895C39.82 18.3695 39.91 18.1495 40 17.9295C40.09 17.7095 40.23 17.3495 40.32 17.0595H43C43.5304 17.0595 44.0391 17.2702 44.4142 17.6453C44.7893 18.0204 45 18.5291 45 19.0595V23.0595L36.31 22.9995Z" fill="#CBFB45"></path><path opacity="0.5" d="M45 18.9996V22.9996H36.31C36.54 22.8096 36.75 22.6096 36.96 22.4096C37.17 22.2096 37.34 22.0296 37.52 21.8296C37.6967 21.6515 37.8604 21.461 38.01 21.2596C38.3221 20.8889 38.6094 20.4981 38.87 20.0896C39.01 19.8896 39.14 19.6696 39.26 19.4596C39.4258 19.178 39.576 18.8876 39.71 18.5896C39.821 18.3761 39.9178 18.1557 40 17.9296C40.12 17.6396 40.23 17.3496 40.32 17.0596H43C43.5202 17.0593 44.02 17.2618 44.3934 17.624C44.7668 17.9862 44.9844 18.4796 45 18.9996Z" fill="#CBFB45"></path><path d="M53 30.5C52.7348 30.5 52.4804 30.6054 52.2929 30.7929C52.1053 30.9804 52 31.2348 52 31.5C52.0009 31.8295 51.9359 32.1558 51.8088 32.4598C51.6817 32.7638 51.4951 33.0392 51.26 33.27C51.1739 33.3581 51.0802 33.4384 50.98 33.51C50.8805 33.5824 50.777 33.6492 50.67 33.71L50.37 33.84C50.2516 33.9042 50.1278 33.9578 50 34C49.8337 34.0153 49.6663 34.0153 49.5 34H47C45.6764 34.0003 44.407 34.5253 43.47 35.46C42.5858 36.3384 42.0616 37.5152 42 38.76C41.9707 39.4188 42.0773 40.0765 42.3129 40.6924C42.5486 41.3082 42.9084 41.8691 43.37 42.34C43.8673 42.8638 44.4659 43.2811 45.1295 43.5664C45.793 43.8518 46.5077 43.9993 47.23 44H50C51.0608 44 52.0782 43.5786 52.8284 42.8284C53.5785 42.0783 54 41.0609 54 40V31.5C54 31.2348 53.8946 30.9804 53.7071 30.7929C53.5195 30.6054 53.2652 30.5 53 30.5ZM52 40C52 40.5304 51.7893 41.0391 51.4142 41.4142C51.0391 41.7893 50.5304 42 50 42H47.23C46.7818 42.003 46.3376 41.916 45.9236 41.7443C45.5096 41.5725 45.1344 41.3194 44.82 41C44.5457 40.7255 44.3313 40.3973 44.1901 40.0358C44.049 39.6744 43.9843 39.2877 44 38.9C44.007 38.7143 44.0338 38.53 44.08 38.35C44.123 38.1725 44.1798 37.9986 44.25 37.83C44.328 37.6636 44.4182 37.5031 44.52 37.35C44.6224 37.1957 44.7397 37.0517 44.87 36.92C45.1461 36.6329 45.4767 36.4037 45.8424 36.2458C46.2081 36.0878 46.6016 36.0043 47 36H49.5C49.8743 35.9991 50.2471 35.9521 50.61 35.86L51.05 35.73C51.4042 35.6133 51.7407 35.4484 52.05 35.24L52 40Z" fill="#CBFB45"></path><path opacity="0.5" d="M52 35.2402V40.0002C52 40.5307 51.7893 41.0394 51.4142 41.4144C51.0391 41.7895 50.5304 42.0002 50 42.0002H47.23C46.7818 42.0032 46.3376 41.9163 45.9236 41.7445C45.5097 41.5727 45.1344 41.3197 44.82 41.0002C44.5457 40.7258 44.3313 40.3975 44.1902 40.0361C44.049 39.6746 43.9843 39.2879 44 38.9002C44.0214 38.5319 44.106 38.1699 44.25 37.8302C44.328 37.6638 44.4182 37.5033 44.52 37.3502C44.6315 37.2 44.7517 37.0565 44.88 36.9202C45.155 36.6343 45.4839 36.4058 45.8478 36.2479C46.2117 36.09 46.6033 36.0058 47 36.0002H49.5C49.8743 35.9993 50.2471 35.9523 50.61 35.8602C50.7596 35.8275 50.9066 35.7841 51.05 35.7302C51.3868 35.6094 51.7062 35.4446 52 35.2402Z" fill="#CBFB45"></path><path d="M23.2 25H32.81C32.5788 25.0019 32.3541 24.9236 32.1741 24.7785C31.9941 24.6333 31.87 24.4303 31.8229 24.204C31.7757 23.9776 31.8084 23.742 31.9155 23.537C32.0225 23.3321 32.1973 23.1706 32.41 23.08L32.58 23H23.41L23.58 23.08C23.7912 23.1699 23.965 23.3297 24.0723 23.5326C24.1795 23.7355 24.2138 23.9691 24.1692 24.1942C24.1247 24.4194 24.004 24.6223 23.8275 24.769C23.6511 24.9158 23.4295 24.9973 23.2 25ZM23.2 25H32.81C32.5788 25.0019 32.3541 24.9236 32.1741 24.7785C31.9941 24.6333 31.87 24.4303 31.8229 24.204C31.7757 23.9776 31.8084 23.742 31.9155 23.537C32.0225 23.3321 32.1973 23.1706 32.41 23.08L32.58 23H23.41L23.58 23.08C23.7912 23.1699 23.965 23.3297 24.0723 23.5326C24.1795 23.7355 24.2138 23.9691 24.1692 24.1942C24.1247 24.4194 24.004 24.6223 23.8275 24.769C23.6511 24.9158 23.4295 24.9973 23.2 25ZM23.2 25H32.81C32.5788 25.0019 32.3541 24.9236 32.1741 24.7785C31.9941 24.6333 31.87 24.4303 31.8229 24.204C31.7757 23.9776 31.8084 23.742 31.9155 23.537C32.0225 23.3321 32.1973 23.1706 32.41 23.08L32.58 23H23.41L23.58 23.08C23.7912 23.1699 23.965 23.3297 24.0723 23.5326C24.1795 23.7355 24.2138 23.9691 24.1692 24.1942C24.1247 24.4194 24.004 24.6223 23.8275 24.769C23.6511 24.9158 23.4295 24.9973 23.2 25ZM47 23.13C46.6743 23.0407 46.3377 22.997 46 23H5C4.20605 23.002 3.4437 22.6891 2.88 22.13C2.46864 21.7109 2.18435 21.1839 2.06 20.61C2.02118 20.409 2.00109 20.2048 2 20C2 19.7348 1.89464 19.4804 1.70711 19.2929C1.51957 19.1054 1.26522 19 1 19C0.734784 19 0.48043 19.1054 0.292893 19.2929C0.105357 19.4804 0 19.7348 0 20L0 52C0 53.0609 0.421427 54.0783 1.17157 54.8284C1.92172 55.5786 2.93913 56 4 56H46C47.0609 56 48.0783 55.5786 48.8284 54.8284C49.5786 54.0783 50 53.0609 50 52V43C50 42.7348 49.8946 42.4804 49.7071 42.2929C49.5196 42.1054 49.2652 42 49 42H47.23C46.7818 42.003 46.3376 41.916 45.9236 41.7443C45.5097 41.5725 45.1344 41.3194 44.82 41C44.5457 40.7255 44.3313 40.3973 44.1902 40.0358C44.049 39.6744 43.9843 39.2877 44 38.9C44.0214 38.5316 44.106 38.1697 44.25 37.83C44.328 37.6636 44.4183 37.5031 44.52 37.35C44.6316 37.1998 44.7518 37.0562 44.88 36.92C45.155 36.6341 45.484 36.4056 45.8479 36.2477C46.2118 36.0898 46.6034 36.0056 47 36H49C49.2652 36 49.5196 35.8946 49.7071 35.7071C49.8946 35.5196 50 35.2652 50 35V27C49.9993 26.1137 49.7044 25.2528 49.1614 24.5523C48.6184 23.8519 47.8581 23.3516 47 23.13ZM43.47 35.46C42.5858 36.3384 42.0616 37.5152 42 38.76C41.9708 39.4188 42.0773 40.0765 42.313 40.6924C42.5487 41.3082 42.9084 41.8691 43.37 42.34C43.8673 42.8638 44.466 43.2811 45.1295 43.5664C45.7931 43.8518 46.5077 43.9993 47.23 44H48V52C48 52.5304 47.7893 53.0391 47.4142 53.4142C47.0391 53.7893 46.5304 54 46 54H4C3.46957 54 2.96086 53.7893 2.58579 53.4142C2.21071 53.0391 2 52.5304 2 52V24C2.86548 24.6491 3.91815 25 5 25H46C46.5304 25 47.0391 25.2107 47.4142 25.5858C47.7893 25.9609 48 26.4696 48 27V34H47C45.6765 34.0003 44.4071 34.5253 43.47 35.46ZM23.2 25H32.81C32.5788 25.0019 32.3541 24.9236 32.1741 24.7785C31.9941 24.6333 31.87 24.4303 31.8229 24.204C31.7757 23.9776 31.8084 23.742 31.9155 23.537C32.0225 23.3321 32.1973 23.1706 32.41 23.08L32.58 23H23.41L23.58 23.08C23.7912 23.1699 23.965 23.3297 24.0723 23.5326C24.1795 23.7355 24.2138 23.9691 24.1692 24.1942C24.1247 24.4194 24.004 24.6223 23.8275 24.769C23.6511 24.9158 23.4295 24.9973 23.2 25ZM23.2 25H32.81C32.5788 25.0019 32.3541 24.9236 32.1741 24.7785C31.9941 24.6333 31.87 24.4303 31.8229 24.204C31.7757 23.9776 31.8084 23.742 31.9155 23.537C32.0225 23.3321 32.1973 23.1706 32.41 23.08L32.58 23H23.41L23.58 23.08C23.7912 23.1699 23.965 23.3297 24.0723 23.5326C24.1795 23.7355 24.2138 23.9691 24.1692 24.1942C24.1247 24.4194 24.004 24.6223 23.8275 24.769C23.6511 24.9158 23.4295 24.9973 23.2 25Z" fill="#CBFB45"></path><path d="M50 26.9999C49.8335 26.9896 49.6665 26.9896 49.5 26.9999H49C48.7348 26.9999 48.4804 27.1052 48.2929 27.2928C48.1054 27.4803 48 27.7347 48 27.9999V34.9999C48 35.2651 48.1054 35.5194 48.2929 35.707C48.4804 35.8945 48.7348 35.9999 49 35.9999H49.5C49.8743 35.9989 50.2471 35.9519 50.61 35.8599L51.05 35.7299C51.4042 35.6131 51.7407 35.4483 52.05 35.2399C52.2931 35.0782 52.5178 34.8904 52.72 34.6799C53.1348 34.2621 53.4618 33.7655 53.6816 33.2193C53.9015 32.6732 54.0097 32.0885 54 31.4999C54.0069 30.3882 53.602 29.3133 52.8634 28.4824C52.1248 27.6515 51.1048 27.1234 50 26.9999ZM51.26 33.2399C51.1739 33.328 51.0802 33.4083 50.98 33.4799C50.8805 33.5523 50.777 33.6191 50.67 33.6799L50.37 33.8099C50.2528 33.8844 50.1289 33.948 50 33.9999V29.0999C50.5647 29.2151 51.0722 29.522 51.4367 29.9684C51.8011 30.4149 52.0001 30.9735 52 31.5499C51.9886 32.1981 51.7228 32.8159 51.26 33.2699V33.2399Z" fill="#CBFB45"></path><path opacity="0.5" d="M52 31.4996C52.0009 31.8291 51.936 32.1554 51.8089 32.4594C51.6818 32.7634 51.4952 33.0388 51.26 33.2696C51.1739 33.3577 51.0802 33.438 50.98 33.5096C50.8805 33.582 50.777 33.6488 50.67 33.7096L50.37 33.8396C50.2517 33.9039 50.1279 33.9574 50 33.9996V29.0996C50.5564 29.2131 51.0575 29.5125 51.421 29.9487C51.7846 30.3849 51.9887 30.9319 52 31.4996Z" fill="#CBFB45"></path><path d="M28 0C24.5522 0 21.2456 1.36964 18.8076 3.80761C16.3696 6.24558 15 9.55219 15 13C14.9982 13.6699 15.0517 14.3389 15.16 15C15.2182 15.4213 15.3017 15.8387 15.41 16.25C15.48 16.5 15.55 16.75 15.63 17L15.81 17.52C15.87 17.69 15.93 17.85 16 18C16.2304 18.5475 16.4977 19.0787 16.8 19.59C16.94 19.83 17.08 20.06 17.24 20.29C17.7851 21.1012 18.4227 21.8462 19.14 22.51C19.2794 22.648 19.4263 22.7782 19.58 22.9L19.69 23C20.2529 23.4781 20.8589 23.9033 21.5 24.27C21.921 24.5168 22.3587 24.734 22.81 24.92C22.9302 24.9712 23.0593 24.9984 23.19 25H32.8C32.9371 24.9985 33.0728 24.9714 33.2 24.92C34.3241 24.4338 35.3716 23.7871 36.31 23C36.54 22.81 36.75 22.61 36.96 22.41C37.17 22.21 37.34 22.03 37.52 21.83C37.6939 21.6493 37.8575 21.459 38.01 21.26C38.3221 20.8894 38.6094 20.4985 38.87 20.09C39.0116 19.8874 39.1418 19.6771 39.26 19.46C39.42 19.18 39.57 18.89 39.71 18.59C39.82 18.37 39.91 18.15 40 17.93C40.09 17.71 40.23 17.35 40.32 17.06C40.39 16.81 40.47 16.56 40.53 16.31C40.6609 15.8803 40.7644 15.4428 40.84 15C40.9483 14.3389 41.0018 13.6699 41 13C41 9.55219 39.6303 6.24558 37.1924 3.80761C34.7544 1.36964 31.4478 0 28 0ZM38.48 16.35C38.42 16.53 38.36 16.71 38.29 16.88C38.217 17.0842 38.1336 17.2844 38.04 17.48C37.96 17.67 37.87 17.85 37.78 18.03C37.69 18.21 37.57 18.43 37.45 18.62C37.3495 18.7992 37.2393 18.9727 37.12 19.14C36.95 19.39 36.78 19.63 36.59 19.86L36.52 19.95C36.34 20.17 36.15 20.39 35.96 20.59C35.76 20.8 35.54 21.01 35.32 21.2C35.0771 21.4294 34.8199 21.6431 34.55 21.84C34.233 22.0808 33.8987 22.298 33.55 22.49C33.3721 22.5997 33.1885 22.6999 33 22.79C32.88 22.86 32.75 22.92 32.62 22.98H23.41L23 22.8L22.52 22.54L22 22.25L21.54 21.94C21.25 21.72 20.96 21.5 20.69 21.25C19.0475 19.7903 17.8747 17.8763 17.32 15.75C16.7182 13.4169 16.8991 10.9507 17.835 8.73042C18.7708 6.5101 20.4097 4.65847 22.5 3.46C24.1732 2.49396 26.0713 1.98567 28.0034 1.98628C29.9355 1.98688 31.8333 2.49635 33.5059 3.46343C35.1785 4.4305 36.5669 5.82107 37.5314 7.49519C38.4959 9.16931 39.0024 11.0679 39 13C38.9998 13.9278 38.8822 14.8518 38.65 15.75C38.6 16 38.54 16.15 38.48 16.35Z" fill="#CBFB45"></path><path opacity="0.5" d="M31.6 12.47C31.8602 12.0237 31.9981 11.5166 32 11C31.9983 10.3811 31.8051 9.7778 31.4471 9.27293C31.089 8.76807 30.5835 8.38631 30 8.18V7C30 6.73478 29.8946 6.48043 29.7071 6.29289C29.5196 6.10536 29.2652 6 29 6C28.7348 6 28.4804 6.10536 28.2929 6.29289C28.1054 6.48043 28 6.73478 28 7V8H27V7C27 6.73478 26.8946 6.48043 26.7071 6.29289C26.5196 6.10536 26.2652 6 26 6C25.7348 6 25.4804 6.10536 25.2929 6.29289C25.1054 6.48043 25 6.73478 25 7V8H24C23.7348 8 23.4804 8.10536 23.2929 8.29289C23.1054 8.48043 23 8.73478 23 9C23 9.26522 23.1054 9.51957 23.2929 9.70711C23.4804 9.89464 23.7348 10 24 10V16C23.7348 16 23.4804 16.1054 23.2929 16.2929C23.1054 16.4804 23 16.7348 23 17C23 17.2652 23.1054 17.5196 23.2929 17.7071C23.4804 17.8946 23.7348 18 24 18H25V19C25 19.2652 25.1054 19.5196 25.2929 19.7071C25.4804 19.8946 25.7348 20 26 20C26.2652 20 26.5196 19.8946 26.7071 19.7071C26.8946 19.5196 27 19.2652 27 19V18H28V19C28 19.2652 28.1054 19.5196 28.2929 19.7071C28.4804 19.8946 28.7348 20 29 20C29.2652 20 29.5196 19.8946 29.7071 19.7071C29.8946 19.5196 30 19.2652 30 19V18C30.6481 17.9974 31.278 17.7849 31.7953 17.3944C32.3126 17.0039 32.6895 16.4564 32.8697 15.8338C33.0498 15.2112 33.0235 14.547 32.7946 13.9406C32.5657 13.3342 32.1466 12.8183 31.6 12.47ZM29 10C29.2652 10 29.5196 10.1054 29.7071 10.2929C29.8946 10.4804 30 10.7348 30 11C30 11.2652 29.8946 11.5196 29.7071 11.7071C29.5196 11.8946 29.2652 12 29 12H26V10H29ZM30 16H26V14H30C30.2652 14 30.5196 14.1054 30.7071 14.2929C30.8946 14.4804 31 14.7348 31 15C31 15.2652 30.8946 15.5196 30.7071 15.7071C30.5196 15.8946 30.2652 16 30 16Z" fill="#CBFB45"></path></svg>