<svg xmlns="http://www.w3.org/2000/svg" width="56" height="56" viewBox="0 0 56 56" fill="none"><path d="M10.49 10.1301L9.99998 9.86007L3.05998 6.00007L1.48998 5.13007C1.33796 5.0423 1.16552 4.99609 0.98998 4.99609C0.814443 4.99609 0.641999 5.0423 0.48998 5.13007C0.331013 5.21969 0.199601 5.3511 0.10998 5.51007C0.0342183 5.6621 -0.00352793 5.83024 -2.02001e-05 6.00007V17.0001C0.000285157 17.1773 0.0476686 17.3512 0.13728 17.5041C0.226892 17.6569 0.355514 17.7832 0.50998 17.8701L6.99998 21.4701L8.78998 22.4701L9.49998 22.8701C9.57886 22.9136 9.66283 22.9472 9.74998 22.9701C9.91916 23.0237 10.1008 23.0237 10.27 22.9701C10.3498 22.9489 10.427 22.9187 10.5 22.8801C10.6541 22.7911 10.7816 22.6627 10.8695 22.508C10.9574 22.3533 11.0025 22.178 11 22.0001V11.0001C10.9997 10.8229 10.9523 10.6489 10.8627 10.4961C10.7731 10.3432 10.6444 10.2169 10.49 10.1301ZM8.63998 20.1301L1.99998 16.4101V7.70007L8.99998 11.5901V20.3001L8.74998 20.1601L8.63998 20.1301Z" fill="#CBFB45"></path><path opacity="0.5" d="M9 11.5902V20.3002L8.75 20.1602L8.64 20.1002L2 16.4102V7.7002L9 11.5902Z" fill="#CBFB45"></path><path d="M19.87 5.51007C19.7804 5.3511 19.649 5.21969 19.49 5.13007C19.338 5.0423 19.1655 4.99609 18.99 4.99609C18.8145 4.99609 18.642 5.0423 18.49 5.13007L16.94 6.00007L10 9.86007L9.51 10.1301C9.35553 10.2169 9.22691 10.3432 9.1373 10.4961C9.04769 10.6489 9.00031 10.8229 9 11.0001V22.0001C9.00003 22.1736 9.04522 22.3442 9.13114 22.4949C9.21705 22.6457 9.34072 22.7716 9.49 22.8601C9.56888 22.9036 9.65285 22.9372 9.74 22.9601C9.90918 23.0137 10.0908 23.0137 10.26 22.9601C10.3398 22.9389 10.417 22.9087 10.49 22.8701L19.49 17.8701C19.6445 17.7832 19.7731 17.6569 19.8627 17.5041C19.9523 17.3512 19.9997 17.1773 20 17.0001V6.00007C19.9973 5.82857 19.9527 5.66033 19.87 5.51007ZM18 16.4101L11 20.3001V11.5901L18 7.70007V16.4101Z" fill="#CBFB45"></path><path opacity="0.5" d="M18 7.7002V16.4102L11 20.3002V11.5902L18 7.7002Z" fill="#CBFB45"></path><path d="M19.87 5.51007C19.7804 5.3511 19.6489 5.21969 19.49 5.13007L10.49 0.130068C10.338 0.0423 10.1655 -0.00390625 9.98998 -0.00390625C9.81444 -0.00390625 9.642 0.0423 9.48998 0.130068L0.48998 5.13007C0.331013 5.21969 0.199601 5.3511 0.10998 5.51007C0.0342183 5.6621 -0.00352793 5.83024 -2.02001e-05 6.00007C0.000285157 6.17726 0.0476686 6.3512 0.13728 6.50406C0.226892 6.65693 0.355514 6.78324 0.50998 6.87007L1.99998 7.70007L8.99998 11.5901L9.50998 11.8701C9.662 11.9578 9.83444 12.004 10.01 12.004C10.1855 12.004 10.358 11.9578 10.51 11.8701L11.02 11.5901L18 7.70007L19.49 6.87007C19.6444 6.78324 19.7731 6.65693 19.8627 6.50406C19.9523 6.3512 19.9997 6.17726 20 6.00007C19.9973 5.82857 19.9527 5.66033 19.87 5.51007ZM9.99998 9.86007L3.05998 6.00007L9.99998 2.14007L16.94 6.00007L9.99998 9.86007Z" fill="#CBFB45"></path><path opacity="0.5" d="M16.94 5.99965L10 9.85965L3.06 5.99965L10 2.13965L16.94 5.99965Z" fill="#CBFB45"></path><path d="M46.49 10.1301L46 9.86007L39.06 6.00007L37.49 5.13007C37.338 5.0423 37.1655 4.99609 36.99 4.99609C36.8144 4.99609 36.642 5.0423 36.49 5.13007C36.331 5.21969 36.1996 5.3511 36.11 5.51007C36.0342 5.6621 35.9965 5.83024 36 6.00007V17.0001C36.0003 17.1773 36.0477 17.3512 36.1373 17.5041C36.2269 17.6569 36.3555 17.7832 36.51 17.8701L45.51 22.8701C45.5889 22.9136 45.6728 22.9472 45.76 22.9701C45.9292 23.0237 46.1108 23.0237 46.28 22.9701C46.3598 22.9489 46.437 22.9187 46.51 22.8801C46.6622 22.7899 46.7878 22.6609 46.8739 22.5063C46.9599 22.3517 47.0035 22.177 47 22.0001V11.0001C46.9997 10.8229 46.9523 10.6489 46.8627 10.4961C46.7731 10.3432 46.6444 10.2169 46.49 10.1301ZM38 7.70007L45 11.5901V20.3001L38 16.4101V7.70007Z" fill="#CBFB45"></path><path opacity="0.5" d="M45 11.5902V20.3002L38 16.4102V7.7002L45 11.5902Z" fill="#CBFB45"></path><path d="M55.87 5.51007C55.7804 5.3511 55.649 5.21969 55.49 5.13007C55.338 5.0423 55.1655 4.99609 54.99 4.99609C54.8145 4.99609 54.642 5.0423 54.49 5.13007L52.94 6.00007L46 9.86007L45.51 10.1301C45.3555 10.2169 45.2269 10.3432 45.1373 10.4961C45.0477 10.6489 45.0003 10.8229 45 11.0001V22.0001C45 22.1736 45.0452 22.3442 45.1311 22.4949C45.217 22.6457 45.3407 22.7716 45.49 22.8601C45.5689 22.9036 45.6529 22.9372 45.74 22.9601C45.9092 23.0137 46.0908 23.0137 46.26 22.9601C46.3398 22.9389 46.417 22.9087 46.49 22.8701L47.2 22.4701L48.99 21.4701L55.47 17.8701C55.6282 17.7859 55.7608 17.6607 55.8541 17.5076C55.9473 17.3546 55.9977 17.1793 56 17.0001V6.00007C55.9973 5.82857 55.9527 5.66033 55.87 5.51007ZM54 16.4101L47.36 20.1001L47.25 20.1601L47 20.3001V11.5901L54 7.70007V16.4101Z" fill="#CBFB45"></path><path opacity="0.5" d="M54 7.7002V16.4102L47.36 20.1002L47.25 20.1602L47 20.3002V11.5902L54 7.7002Z" fill="#CBFB45"></path><path d="M55.87 5.51007C55.7804 5.3511 55.6489 5.21969 55.49 5.13007L46.49 0.130068C46.338 0.0423 46.1655 -0.00390625 45.99 -0.00390625C45.8144 -0.00390625 45.642 0.0423 45.49 0.130068L36.49 5.13007C36.331 5.21969 36.1996 5.3511 36.11 5.51007C36.0342 5.6621 35.9965 5.83024 36 6.00007C36.0003 6.17726 36.0477 6.3512 36.1373 6.50406C36.2269 6.65693 36.3555 6.78324 36.51 6.87007L38 7.70007L45 11.5901L45.51 11.8701C45.662 11.9578 45.8344 12.004 46.01 12.004C46.1855 12.004 46.358 11.9578 46.51 11.8701L47.02 11.5901L54 7.70007L55.49 6.87007C55.6444 6.78324 55.7731 6.65693 55.8627 6.50406C55.9523 6.3512 55.9997 6.17726 56 6.00007C55.9973 5.82857 55.9527 5.66033 55.87 5.51007ZM46 9.86007L39.06 6.00007L46 2.14007L52.94 6.00007L46 9.86007Z" fill="#CBFB45"></path><path opacity="0.5" d="M52.94 5.99965L46 9.85965L39.06 5.99965L46 2.13965L52.94 5.99965Z" fill="#CBFB45"></path><path d="M10.49 43.1301L9.99998 42.8601L3.05998 39.0001L1.48998 38.1301C1.33796 38.0423 1.16552 37.9961 0.98998 37.9961C0.814443 37.9961 0.641999 38.0423 0.48998 38.1301C0.331013 38.2197 0.199601 38.3511 0.10998 38.5101C0.0342183 38.6621 -0.00352793 38.8302 -2.02001e-05 39.0001V50.0001C0.000285157 50.1773 0.0476686 50.3512 0.13728 50.5041C0.226892 50.6569 0.355514 50.7832 0.50998 50.8701L9.50998 55.8701C9.58886 55.9136 9.67283 55.9472 9.75998 55.9701C9.92916 56.0237 10.1108 56.0237 10.28 55.9701C10.3598 55.9489 10.437 55.9187 10.51 55.8801C10.6622 55.7899 10.7878 55.6609 10.8739 55.5063C10.9599 55.3517 11.0035 55.177 11 55.0001V44.0001C10.9997 43.8229 10.9523 43.6489 10.8627 43.4961C10.7731 43.3432 10.6444 43.2169 10.49 43.1301ZM1.99998 40.7001L8.99998 44.5901V53.3001L1.99998 49.4101V40.7001Z" fill="#CBFB45"></path><path opacity="0.5" d="M9 44.5902V53.3002L2 49.4102V40.7002L9 44.5902Z" fill="#CBFB45"></path><path d="M19.87 38.5101C19.7804 38.3511 19.649 38.2197 19.49 38.1301C19.338 38.0423 19.1655 37.9961 18.99 37.9961C18.8145 37.9961 18.642 38.0423 18.49 38.1301L16.94 39.0001L10 42.8601L9.51 43.1301C9.35553 43.2169 9.22691 43.3432 9.1373 43.4961C9.04769 43.6489 9.00031 43.8229 9 44.0001V55.0001C9.00003 55.1736 9.04522 55.3442 9.13114 55.4949C9.21705 55.6457 9.34072 55.7716 9.49 55.8601C9.56888 55.9036 9.65285 55.9372 9.74 55.9601C9.90918 56.0137 10.0908 56.0137 10.26 55.9601C10.3398 55.9389 10.417 55.9087 10.49 55.8701L19.49 50.8701C19.6445 50.7832 19.7731 50.6569 19.8627 50.5041C19.9523 50.3512 19.9997 50.1773 20 50.0001V39.0001C19.9973 38.8286 19.9527 38.6603 19.87 38.5101ZM18 49.4101L11 53.3001V44.5901L18 40.7001V49.4101Z" fill="#CBFB45"></path><path opacity="0.5" d="M18 40.7002V49.4102L11 53.3002V44.5902L18 40.7002Z" fill="#CBFB45"></path><path d="M19.87 38.5101C19.7804 38.3511 19.649 38.2197 19.49 38.1301L10.49 33.1301C10.338 33.0423 10.1655 32.9961 9.99 32.9961C9.81446 32.9961 9.64202 33.0423 9.49 33.1301L8.76 33.5401L7 34.5301L0.51 38.1301C0.351033 38.2197 0.219621 38.3511 0.13 38.5101C0.0472957 38.6603 0.0026615 38.8286 0 39.0001C0.000305357 39.1773 0.0476888 39.3512 0.137301 39.5041C0.226912 39.6569 0.355534 39.7832 0.51 39.8701L2 40.7001L9 44.5901L9.51 44.8701C9.66202 44.9578 9.83446 45.004 10.01 45.004C10.1855 45.004 10.358 44.9578 10.51 44.8701L11.02 44.5901L18.02 40.7001L19.51 39.8701C19.6607 39.7807 19.7854 39.6533 19.8714 39.5006C19.9574 39.3479 20.0017 39.1753 20 39.0001C19.9973 38.8286 19.9527 38.6603 19.87 38.5101ZM10 42.8601L3.06 39.0001L8.61 35.9201L8.76 35.8301H8.81L10 35.1401L16.94 39.0001L10 42.8601Z" fill="#CBFB45"></path><path opacity="0.5" d="M16.94 38.9996L10 42.8596L3.06 38.9996L8.61 35.9196L8.76 35.8297H8.81L10 35.1396L16.94 38.9996Z" fill="#CBFB45"></path><path d="M46.49 43.1301L46 42.8601L39.06 39.0001L37.49 38.1301C37.338 38.0423 37.1655 37.9961 36.99 37.9961C36.8144 37.9961 36.642 38.0423 36.49 38.1301C36.331 38.2197 36.1996 38.3511 36.11 38.5101C36.0342 38.6621 35.9965 38.8302 36 39.0001V50.0001C36.0003 50.1773 36.0477 50.3512 36.1373 50.5041C36.2269 50.6569 36.3555 50.7832 36.51 50.8701L45.51 55.8701C45.5889 55.9136 45.6728 55.9472 45.76 55.9701C45.9293 56.0231 46.1107 56.0231 46.28 55.9701C46.3598 55.9489 46.437 55.9187 46.51 55.8801C46.6622 55.7899 46.7878 55.6609 46.8739 55.5063C46.9599 55.3517 47.0035 55.177 47 55.0001V44.0001C46.9997 43.8229 46.9523 43.6489 46.8627 43.4961C46.7731 43.3432 46.6444 43.2169 46.49 43.1301ZM38 40.7001L45 44.5901V53.3001L38 49.4101V40.7001Z" fill="#CBFB45"></path><path opacity="0.5" d="M45 44.5902V53.3002L38 49.4102V40.7002L45 44.5902Z" fill="#CBFB45"></path><path d="M55.87 38.5101C55.7804 38.3511 55.649 38.2197 55.49 38.1301C55.338 38.0423 55.1655 37.9961 54.99 37.9961C54.8145 37.9961 54.642 38.0423 54.49 38.1301L52.94 39.0001L46 42.8601L45.51 43.1301C45.3555 43.2169 45.2269 43.3432 45.1373 43.4961C45.0477 43.6489 45.0003 43.8229 45 44.0001V55.0001C45 55.1736 45.0452 55.3442 45.1311 55.4949C45.217 55.6457 45.3407 55.7716 45.49 55.8601C45.5689 55.9036 45.6529 55.9372 45.74 55.9601C45.9093 56.0131 46.0907 56.0131 46.26 55.9601C46.3398 55.9389 46.417 55.9087 46.49 55.8701L55.49 50.8701C55.6445 50.7832 55.7731 50.6569 55.8627 50.5041C55.9523 50.3512 55.9997 50.1773 56 50.0001V39.0001C55.9973 38.8286 55.9527 38.6603 55.87 38.5101ZM54 49.4101L47 53.3001V44.5901L54 40.7001V49.4101Z" fill="#CBFB45"></path><path opacity="0.5" d="M54 40.7002V49.4102L47 53.3002V44.5902L54 40.7002Z" fill="#CBFB45"></path><path d="M46.86 34.6603C46.99 34.2903 47.11 33.9203 47.22 33.5403L46.49 33.1303C46.338 33.0425 46.1655 32.9963 45.99 32.9963C45.8144 32.9963 45.642 33.0425 45.49 33.1303L36.49 38.1303C36.642 38.0425 36.8144 37.9963 36.99 37.9963C37.1655 37.9963 37.338 38.0425 37.49 38.1303L39.06 39.0003L46 35.1403L47.18 35.7903C47.0143 35.6598 46.8941 35.4802 46.8366 35.2772C46.7791 35.0743 46.7873 34.8583 46.86 34.6603ZM55.86 38.5103C55.7704 38.3513 55.6389 38.2199 55.48 38.1303L49 34.5303L47.21 33.5303L46.48 33.1203C46.328 33.0325 46.1555 32.9863 45.98 32.9863C45.8044 32.9863 45.632 33.0325 45.48 33.1203L36.48 38.1203C36.321 38.2099 36.1896 38.3413 36.1 38.5003C36.0261 38.6562 35.9917 38.828 36 39.0003C36.0003 39.1775 36.0477 39.3514 36.1373 39.5043C36.2269 39.6572 36.3555 39.7835 36.51 39.8703L38 40.7003L45 44.5903L45.51 44.8703C45.662 44.9581 45.8344 45.0043 46.01 45.0043C46.1855 45.0043 46.358 44.9581 46.51 44.8703L47.02 44.5903L54.02 40.7003L55.51 39.8703C55.6607 39.7809 55.7853 39.6535 55.8713 39.5008C55.9573 39.3481 56.0017 39.1755 56 39.0003C55.9973 38.8288 55.9527 38.6606 55.87 38.5103H55.86ZM46 42.8603L39.06 39.0003L46 35.1403L47.18 35.7903L47.33 35.8803L52.94 39.0003L46 42.8603Z" fill="#CBFB45"></path><path opacity="0.5" d="M52.94 38.9996L46 42.8596L39.06 38.9996L46 35.1396L47.18 35.7896L47.33 35.8797L52.94 38.9996Z" fill="#CBFB45"></path><path opacity="0.5" d="M8.82 35.7905H8.77L8.62 35.8805H8.55C8.44127 35.9407 8.3228 35.9813 8.2 36.0005C7.99448 36.0004 7.79399 35.937 7.62579 35.8189C7.4576 35.7008 7.32987 35.5337 7.26 35.3405C7.16 35.0671 7.07 34.7971 6.99 34.5305C5.67132 30.2765 5.67481 25.7224 7 21.4705C7.08 21.1971 7.17 20.9271 7.27 20.6605C7.36026 20.4112 7.54579 20.208 7.7858 20.0955C8.02582 19.983 8.30069 19.9704 8.55 20.0605H8.65L8.76 20.1205C8.85667 20.1981 8.93805 20.2931 9 20.4005C9.09948 20.5332 9.16436 20.6887 9.1888 20.8528C9.21324 21.0169 9.19647 21.1845 9.14 21.3405C9.09 21.4805 9.04 21.6105 9 21.7505C8.96 21.8905 8.85 22.2205 8.78 22.4605C7.73978 26.0806 7.73978 29.9204 8.78 33.5405C8.89 33.9205 9.01 34.2905 9.14 34.6605C9.21266 34.8585 9.22083 35.0744 9.16336 35.2774C9.10588 35.4803 8.9857 35.6599 8.82 35.7905Z" fill="#CBFB45"></path><path opacity="0.5" d="M28 49.9996C24.7372 50.0116 21.5138 49.2869 18.57 47.8796C18.33 47.7656 18.1451 47.5609 18.056 47.3105C17.9669 47.0601 17.981 46.7846 18.095 46.5446C18.2091 46.3046 18.4138 46.1197 18.6641 46.0306C18.9145 45.9416 19.19 45.9556 19.43 46.0696C22.1084 47.3398 25.0357 47.9988 28 47.9988C30.9643 47.9988 33.8916 47.3398 36.57 46.0696C36.81 45.9556 37.0855 45.9416 37.3359 46.0306C37.5862 46.1197 37.791 46.3046 37.905 46.5446C38.019 46.7846 38.0331 47.0601 37.944 47.3105C37.8549 47.5609 37.67 47.7656 37.43 47.8796C34.4863 49.2869 31.2628 50.0116 28 49.9996Z" fill="#CBFB45"></path><path opacity="0.5" d="M50 28.0005C50.0009 30.2154 49.6637 32.4174 49 34.5305C48.92 34.7972 48.83 35.0672 48.73 35.3405C48.6601 35.5338 48.5324 35.7008 48.3642 35.8189C48.196 35.937 47.9955 36.0004 47.79 36.0005C47.6741 35.9992 47.5593 35.9789 47.45 35.9405H47.38L47.23 35.8505C47.0643 35.72 46.9441 35.5404 46.8866 35.3374C46.8291 35.1345 46.8373 34.9185 46.91 34.7205C47.04 34.3505 47.16 33.9805 47.27 33.6005C48.3102 29.9804 48.3102 26.1406 47.27 22.5205C47.2 22.2805 47.13 22.0405 47.05 21.8105C46.97 21.5805 46.96 21.5405 46.91 21.4005C46.8355 21.2407 46.8046 21.064 46.8204 20.8884C46.8362 20.7128 46.8981 20.5445 47 20.4005C47.0687 20.3066 47.1533 20.2253 47.25 20.1605L47.36 20.1005H47.46C47.7093 20.0104 47.9841 20.023 48.2242 20.1356C48.4642 20.2481 48.6497 20.4513 48.74 20.7005C48.84 20.9672 48.93 21.2372 49.01 21.5105C49.6663 23.6113 50.0001 25.7996 50 28.0005Z" fill="#CBFB45"></path><path opacity="0.5" d="M37 10.0002C36.8507 10.0015 36.7033 9.96718 36.57 9.90018C33.8898 8.6361 30.9632 7.98057 28 7.98057C25.0367 7.98057 22.1101 8.6361 19.43 9.90018C19.1912 10.0135 18.9172 10.0277 18.668 9.93964C18.4187 9.85156 18.2145 9.6684 18.1 9.43018C18.0423 9.31143 18.0087 9.18244 18.0011 9.05064C17.9935 8.91884 18.0121 8.78685 18.0558 8.66227C18.0995 8.53769 18.1674 8.423 18.2557 8.32481C18.3439 8.22662 18.4507 8.14688 18.57 8.09018C21.5195 6.70088 24.7396 5.98047 28 5.98047C31.2603 5.98047 34.4804 6.70088 37.43 8.09018C37.639 8.18537 37.809 8.34965 37.9112 8.55539C38.0134 8.76114 38.0417 8.99581 37.9912 9.21993C37.9407 9.44406 37.8147 9.64398 37.6341 9.78608C37.4536 9.92817 37.2297 10.0038 37 10.0002Z" fill="#CBFB45"></path><path d="M32.36 27.54C32.779 26.9576 33.003 26.2575 33 25.54V25.43C33.0066 24.5901 32.7049 23.777 32.1519 23.1448C31.599 22.5126 30.8333 22.1053 30 22V21C30 20.7348 29.8946 20.4804 29.7071 20.2929C29.5196 20.1054 29.2652 20 29 20C28.7348 20 28.4804 20.1054 28.2929 20.2929C28.1054 20.4804 28 20.7348 28 21V22H26V21C26 20.7348 25.8946 20.4804 25.7071 20.2929C25.5196 20.1054 25.2652 20 25 20C24.7348 20 24.4804 20.1054 24.2929 20.2929C24.1054 20.4804 24 20.7348 24 21V22H23C22.7348 22 22.4804 22.1054 22.2929 22.2929C22.1054 22.4804 22 22.7348 22 23C22 23.2652 22.1054 23.5196 22.2929 23.7071C22.4804 23.8946 22.7348 24 23 24V32C22.7348 32 22.4804 32.1054 22.2929 32.2929C22.1054 32.4804 22 32.7348 22 33C22 33.2652 22.1054 33.5196 22.2929 33.7071C22.4804 33.8946 22.7348 34 23 34H24V35C24 35.2652 24.1054 35.5196 24.2929 35.7071C24.4804 35.8946 24.7348 36 25 36C25.2652 36 25.5196 35.8946 25.7071 35.7071C25.8946 35.5196 26 35.2652 26 35V34H28V35C28 35.2652 28.1054 35.5196 28.2929 35.7071C28.4804 35.8946 28.7348 36 29 36C29.2652 36 29.5196 35.8946 29.7071 35.7071C29.8946 35.5196 30 35.2652 30 35V34H30.5C31.258 33.9983 31.9951 33.7506 32.6002 33.2941C33.2053 32.8375 33.6459 32.1969 33.8556 31.4684C34.0654 30.74 34.033 29.9631 33.7632 29.2547C33.4935 28.5462 33.0011 27.9445 32.36 27.54ZM29 24H29.56C29.9411 24.0026 30.3059 24.1552 30.5753 24.4247C30.8448 24.6941 30.9974 25.0589 31 25.44V25.55C31 25.9328 30.8486 26.3001 30.5788 26.5718C30.3091 26.8434 29.9428 26.9974 29.56 27H25V24H29ZM30.5 32H25V29H30.5C30.8978 29 31.2794 29.158 31.5607 29.4393C31.842 29.7206 32 30.1022 32 30.5C32 30.8978 31.842 31.2794 31.5607 31.5607C31.2794 31.842 30.8978 32 30.5 32Z" fill="#CBFB45"></path></svg>