<svg xmlns="http://www.w3.org/2000/svg" width="42" height="40" viewBox="0 0 42 40" fill="none">
  <path d="M0.829522 5.31496C0.886854 4.90545 0.915519 4.70069 0.955836 4.51903C1.35065 2.74003 2.74003 1.35065 4.51903 0.955837C4.70069 0.91552 4.90545 0.886854 5.31496 0.829522C6.48447 0.66579 7.06923 0.583925 7.65278 0.512358C13.2231 -0.170786 28.064 -0.170786 33.6343 0.512358C34.2179 0.583925 34.8026 0.66579 35.9722 0.829522C36.3817 0.886854 36.5864 0.91552 36.7681 0.955837C38.5471 1.35065 39.9365 2.74003 40.3313 4.51903C40.3716 4.70069 40.4003 4.90545 40.4576 5.31496C40.6213 6.48447 40.7032 7.06923 40.7748 7.65278C41.4579 13.2231 41.4579 26.7769 40.7748 32.3472C40.7032 32.9308 40.6213 33.5155 40.4576 34.685C40.4003 35.0946 40.3716 35.2993 40.3313 35.481C39.9365 37.26 38.5471 38.6493 36.7681 39.0442C36.5864 39.0845 36.3817 39.1131 35.9722 39.1705C34.8026 39.3342 34.2179 39.4161 33.6343 39.4876C28.064 40.1708 13.2231 40.1708 7.65278 39.4876C7.06923 39.4161 6.48447 39.3342 5.31496 39.1705C4.90545 39.1131 4.70069 39.0845 4.51903 39.0442C2.74003 38.6493 1.35065 37.26 0.955836 35.481C0.915519 35.2993 0.886854 35.0946 0.829522 34.685C0.66579 33.5155 0.583924 32.9308 0.512358 32.3472C-0.170786 26.7769 -0.170786 13.2231 0.512358 7.65278C0.583924 7.06923 0.66579 6.48447 0.829522 5.31496Z" fill="#FFFFD2"/>
  <path d="M0.829522 5.31496C0.886854 4.90545 0.915519 4.70069 0.955836 4.51903C1.35065 2.74003 2.74003 1.35065 4.51903 0.955837C4.70069 0.91552 4.90545 0.886854 5.31496 0.829522C6.48447 0.66579 7.06923 0.583925 7.65278 0.512358C13.2231 -0.170786 28.064 -0.170786 33.6343 0.512358C34.2179 0.583925 34.8026 0.66579 35.9722 0.829522C36.3817 0.886854 36.5864 0.91552 36.7681 0.955837C38.5471 1.35065 39.9365 2.74003 40.3313 4.51903C40.3716 4.70069 40.4003 4.90545 40.4576 5.31496C40.6213 6.48447 40.7032 7.06923 40.7748 7.65278C41.4579 13.2231 41.4579 26.7769 40.7748 32.3472C40.7032 32.9308 40.6213 33.5155 40.4576 34.685C40.4003 35.0946 40.3716 35.2993 40.3313 35.481C39.9365 37.26 38.5471 38.6493 36.7681 39.0442C36.5864 39.0845 36.3817 39.1131 35.9722 39.1705C34.8026 39.3342 34.2179 39.4161 33.6343 39.4876C28.064 40.1708 13.2231 40.1708 7.65278 39.4876C7.06923 39.4161 6.48447 39.3342 5.31496 39.1705C4.90545 39.1131 4.70069 39.0845 4.51903 39.0442C2.74003 38.6493 1.35065 37.26 0.955836 35.481C0.915519 35.2993 0.886854 35.0946 0.829522 34.685C0.66579 33.5155 0.583924 32.9308 0.512358 32.3472C-0.170786 26.7769 -0.170786 13.2231 0.512358 7.65278C0.583924 7.06923 0.66579 6.48447 0.829522 5.31496Z" fill="url(#paint0_linear_1_692)"/>
  <defs>
    <linearGradient id="paint0_linear_1_692" x1="0" y1="20" x2="41.2871" y2="20" gradientUnits="userSpaceOnUse">
      <stop stop-color="#FCAF54"/>
      <stop offset="1" stop-color="#FAFDB4"/>
    </linearGradient>
  </defs>
</svg>