<svg xmlns="http://www.w3.org/2000/svg" width="84" height="81" viewBox="0 0 84 81" fill="none">
  <g filter="url(#filter0_b_1_2367)">
    <path d="M1.66967 10.698C1.78507 9.87374 1.84277 9.46161 1.92392 9.09595C2.71861 5.51515 5.51515 2.71861 9.09595 1.92392C9.46161 1.84277 9.87374 1.78507 10.698 1.66967C13.052 1.34011 14.229 1.17533 15.4036 1.03128C26.6157 -0.34376 57.3843 -0.34376 68.5964 1.03128C69.771 1.17533 70.948 1.34011 73.302 1.66967C74.1262 1.78507 74.5384 1.84277 74.904 1.92392C78.4848 2.71861 81.2814 5.51515 82.0761 9.09595C82.1572 9.46161 82.2149 9.87374 82.3303 10.698C82.6599 13.052 82.8247 14.229 82.9687 15.4036C84.3438 26.6157 84.3438 53.8968 82.9687 65.1089C82.8247 66.2834 82.6599 67.4604 82.3303 69.8144C82.2149 70.6387 82.1572 71.0508 82.0761 71.4165C81.2814 74.9973 78.4848 77.7938 74.904 78.5885C74.5384 78.6697 74.1263 78.7274 73.302 78.8428C70.948 79.1723 69.771 79.3371 68.5964 79.4812C57.3843 80.8562 26.6157 80.8562 15.4036 79.4812C14.229 79.3371 13.052 79.1723 10.698 78.8428C9.87374 78.7274 9.46161 78.6697 9.09595 78.5885C5.51515 77.7938 2.71861 74.9973 1.92392 71.4165C1.84277 71.0508 1.78507 70.6387 1.66967 69.8144C1.34011 67.4604 1.17533 66.2834 1.03128 65.1089C-0.34376 53.8968 -0.34376 26.6157 1.03128 15.4036C1.17533 14.229 1.34011 13.052 1.66967 10.698Z" fill="white" fill-opacity="0.2"/>
    <path d="M2.16484 10.7673C2.28146 9.93434 2.33624 9.54586 2.41204 9.20428C3.16465 5.8131 5.8131 3.16465 9.20428 2.41204C9.54586 2.33624 9.93434 2.28146 10.7673 2.16484C13.1229 1.83506 14.2951 1.67097 15.4645 1.52756C21.0375 0.844084 31.506 0.5 42 0.5C52.494 0.5 62.9625 0.844084 68.5355 1.52756C69.7049 1.67097 70.8771 1.83506 73.2327 2.16484C74.0657 2.28146 74.4541 2.33624 74.7957 2.41204C78.1869 3.16465 80.8354 5.81311 81.588 9.20428C81.6638 9.54586 81.7185 9.93432 81.8352 10.7673C82.1649 13.1229 82.329 14.2951 82.4724 15.4645C83.8425 26.6361 83.8425 53.8764 82.4724 65.048C82.329 66.2174 82.1649 67.3895 81.8352 69.7451C81.7185 70.5781 81.6638 70.9666 81.588 71.3082C80.8354 74.6993 78.1869 77.3478 74.7957 78.1004C74.4541 78.1762 74.0657 78.231 73.2326 78.3476C70.8771 78.6774 69.7049 78.8415 68.5355 78.9849C62.9625 79.6684 52.494 80.0125 42 80.0125C31.506 80.0125 21.0375 79.6684 15.4645 78.9849C14.2951 78.8415 13.1229 78.6774 10.7673 78.3476C9.93432 78.231 9.54586 78.1762 9.20428 78.1004C5.8131 77.3478 3.16465 74.6993 2.41204 71.3082C2.33624 70.9666 2.28146 70.5781 2.16484 69.7451C1.83506 67.3895 1.67097 66.2174 1.52756 65.048C0.157479 53.8764 0.157479 26.6361 1.52756 15.4645C1.67097 14.2951 1.83506 13.1229 2.16484 10.7673Z" stroke="#FFF8F8"/>
  </g>
  <defs>
    <filter id="filter0_b_1_2367" x="-9" y="-9" width="102" height="98.5125" filterUnits="userSpaceOnUse" color-interpolation-filters="sRGB">
      <feFlood flood-opacity="0" result="BackgroundImageFix"/>
      <feGaussianBlur in="BackgroundImageFix" stdDeviation="4.5"/>
      <feComposite in2="SourceAlpha" operator="in" result="effect1_backgroundBlur_1_2367"/>
      <feBlend mode="normal" in="SourceGraphic" in2="effect1_backgroundBlur_1_2367" result="shape"/>
    </filter>
  </defs>
</svg>